<svg width="51" height="48" viewBox="0 0 51 48" fill="none" xmlns="http://www.w3.org/2000/svg">
<path d="M42.9036 10.28L39.6523 13.34" stroke="white" stroke-width="2" stroke-linecap="round" stroke-linejoin="round"/>
<path d="M25.5 3.54004V7.86004" stroke="white" stroke-width="2" stroke-linecap="round" stroke-linejoin="round"/>
<path d="M25.5 44.48C36.0624 44.48 44.625 36.4211 44.625 26.48C44.625 16.5389 36.0624 8.47998 25.5 8.47998C14.9376 8.47998 6.375 16.5389 6.375 26.48C6.375 36.4211 14.9376 44.48 25.5 44.48Z" stroke="white" stroke-width="2" stroke-linecap="round" stroke-linejoin="round"/>
<path d="M25.5 16.9399V22.4599" stroke="white" stroke-width="2" stroke-linecap="round" stroke-linejoin="round"/>
<path d="M25.5 30.48C27.8472 30.48 29.75 28.6891 29.75 26.48C29.75 24.2708 27.8472 22.48 25.5 22.48C23.1528 22.48 21.25 24.2708 21.25 26.48C21.25 28.6891 23.1528 30.48 25.5 30.48Z" stroke="white" stroke-width="2" stroke-linecap="round" stroke-linejoin="round"/>
</svg>
