<svg width="189" height="45" viewBox="0 0 189 45" fill="none" xmlns="http://www.w3.org/2000/svg">
<path d="M34.6562 18.5273C34.3926 18.5273 34.1777 18.4883 34.0117 18.4102C33.8457 18.332 33.7139 18.2344 33.6162 18.1172C33.5186 18 33.4062 17.8828 33.2793 17.7656C33.1621 17.6484 32.9717 17.5508 32.708 17.4727C32.4443 17.3945 32.1074 17.3555 31.6973 17.3555C31.5703 17.3555 31.4141 17.3701 31.2285 17.3994C31.0527 17.4189 30.8574 17.4824 30.6426 17.5898C30.4277 17.6973 30.3203 17.834 30.3203 18C30.3203 18.1855 30.4082 18.3467 30.584 18.4834C30.7695 18.6104 30.9746 18.7031 31.1992 18.7617C31.4336 18.8105 31.6924 18.874 31.9756 18.9521C32.2686 19.0205 32.4736 19.084 32.5908 19.1426L34.7441 19.6699C35.3789 19.8457 35.9502 20.0312 36.458 20.2266C36.9658 20.4219 37.5029 20.6904 38.0693 21.0322C38.6455 21.3643 39.124 21.7354 39.5049 22.1455C39.8857 22.5557 40.2031 23.0732 40.457 23.6982C40.7109 24.3135 40.8379 24.9922 40.8379 25.7344C40.8379 26.6328 40.7207 27.4336 40.4863 28.1367V28.1074C40.2812 28.7324 39.9932 29.2939 39.6221 29.792C39.251 30.2803 38.8115 30.6904 38.3037 31.0225C37.7959 31.3447 37.2832 31.6182 36.7656 31.8428C36.248 32.0576 35.6475 32.2334 34.9639 32.3701C34.29 32.4971 33.6846 32.5947 33.1475 32.6631C32.6201 32.7217 32.0098 32.7754 31.3164 32.8242C28.2402 32.668 26.1797 32.1797 25.1348 31.3594V31.1836C24.2461 30.5195 23.5869 29.7969 23.1572 29.0156C22.7373 28.2344 22.4883 27.3555 22.4102 26.3789C22.4102 26.1445 22.5176 26.0273 22.7324 26.0273C22.791 26.0273 22.8789 26.0322 22.9961 26.042C23.1133 26.0518 23.2012 26.0566 23.2598 26.0566H24.7539C24.8906 26.0371 25.0859 26.0273 25.3398 26.0273H25.7207C25.7988 26.0273 25.8672 26.0371 25.9258 26.0566C26.4922 26.0371 27.459 26.0273 28.8262 26.0273H29.5C29.6953 26.0273 29.8467 26.0859 29.9541 26.2031C30.0615 26.3203 30.1445 26.4668 30.2031 26.6426C30.2715 26.8086 30.3447 26.9795 30.4229 27.1553C30.5107 27.3213 30.6621 27.4629 30.877 27.5801C31.0918 27.6973 31.375 27.7559 31.7266 27.7559C32.1074 27.7559 32.4492 27.6582 32.752 27.4629C33.0645 27.2578 33.2207 26.9648 33.2207 26.584C33.2207 26.4082 33.1377 26.2422 32.9717 26.0859C32.8057 25.9297 32.5566 25.7881 32.2246 25.6611C31.8926 25.5342 31.5947 25.4316 31.3311 25.3535C31.0771 25.2754 30.7305 25.1826 30.291 25.0752C29.8516 24.9678 29.5684 24.8945 29.4414 24.8555H28.5625C26.4434 24.2305 24.915 23.4395 23.9775 22.4824C23.0498 21.5156 22.5859 20.2949 22.5859 18.8203C22.5859 17.8438 22.7666 16.9648 23.1279 16.1836C23.499 15.4023 23.9824 14.7627 24.5781 14.2646C25.1836 13.7666 25.8916 13.3516 26.7021 13.0195C27.5127 12.6777 28.3379 12.4385 29.1777 12.3018C30.0176 12.1553 30.8867 12.082 31.7852 12.082C33.377 12.082 34.8516 12.3506 36.209 12.8877C37.5762 13.415 38.6113 14.1035 39.3145 14.9531C39.5684 15.207 39.7734 15.5293 39.9297 15.9199C40.0859 16.3105 40.1836 16.623 40.2227 16.8574C40.2715 17.082 40.3301 17.4629 40.3984 18L39.9883 18.5859H37.498C37.2246 18.5859 36.7705 18.5762 36.1357 18.5566C35.501 18.5371 35.0078 18.5273 34.6562 18.5273ZM41.541 22.3945L41.5117 22.0723C41.6973 20.4805 41.873 19.3721 42.0391 18.7471C42.4199 17.2822 43.1035 16.0566 44.0898 15.0703L44.4414 14.7188C44.9102 14.1719 45.623 13.7031 46.5801 13.3125H47.1367C48.0938 12.9121 49.666 12.541 51.8535 12.1992C52.4004 12.1992 52.9717 12.2432 53.5674 12.3311C54.1729 12.4092 54.8418 12.5459 55.5742 12.7412C56.3066 12.9268 57.0098 13.2295 57.6836 13.6494C58.3672 14.0596 58.9336 14.5527 59.3828 15.1289V15.5391C60.9844 17.541 61.7852 19.7871 61.7852 22.2773C61.7852 25.0801 61.1406 27.3652 59.8516 29.1328L59.2656 29.8652C58.8164 30.4219 58.2549 30.9004 57.5811 31.3008C56.917 31.7012 56.209 32.0088 55.457 32.2236C54.7051 32.4287 53.9824 32.5752 53.2891 32.6631C52.6055 32.751 51.9219 32.7949 51.2383 32.7949C50.2324 32.7949 49.2705 32.6777 48.3525 32.4434C47.4443 32.1992 46.5898 31.8232 45.7891 31.3154C44.998 30.8076 44.2998 30.1826 43.6943 29.4404C43.0889 28.6982 42.5957 27.8047 42.2148 26.7598C41.8438 25.7051 41.6191 24.543 41.541 23.2734V22.3945ZM49.5977 22.5117C49.5977 25.9492 50.252 27.668 51.5605 27.668C51.9219 27.668 52.2344 27.5996 52.498 27.4629C52.7715 27.3262 52.9912 27.1162 53.1572 26.833C53.3232 26.5498 53.46 26.2617 53.5674 25.9688C53.6748 25.6758 53.748 25.3096 53.7871 24.8701C53.8359 24.4307 53.8652 24.0449 53.875 23.7129C53.8945 23.3809 53.9043 22.9805 53.9043 22.5117V21.9844C53.9043 21.4766 53.875 20.9883 53.8164 20.5195C53.7578 20.0508 53.6553 19.582 53.5088 19.1133C53.3721 18.6348 53.1572 18.2539 52.8643 17.9707C52.5713 17.6777 52.2148 17.5312 51.7949 17.5312C50.3301 17.5312 49.5977 18.9766 49.5977 21.8672V22.5117ZM64.0996 32.4141C64.0703 32.375 64.0215 32.3311 63.9531 32.2822C63.8945 32.2334 63.8262 32.1406 63.748 32.0039V25.6758C63.748 24.8457 63.7822 23.5713 63.8506 21.8525C63.9189 20.1338 63.9531 18.8301 63.9531 17.9414C63.9531 17.7461 63.9336 17.3311 63.8945 16.6963C63.8555 16.0615 63.8359 15.5586 63.8359 15.1875C63.8359 13.8105 64.002 12.9707 64.334 12.668C66.3652 12.707 67.8789 12.7266 68.875 12.7266H70.2812C70.6133 12.7266 70.8672 12.7363 71.043 12.7559C71.0625 12.7363 71.1113 12.7266 71.1895 12.7266C71.209 12.7266 71.292 12.7363 71.4385 12.7559C71.5947 12.7754 71.7168 12.7852 71.8047 12.7852C72.0488 12.8145 72.2539 13.0195 72.4199 13.4004V13.6055C72.4199 13.7129 72.415 13.8691 72.4053 14.0742C72.3955 14.2793 72.3906 14.4355 72.3906 14.543V15.1875C72.3809 15.2363 72.3174 15.3242 72.2002 15.4512C72.0928 15.5684 72.0391 15.666 72.0391 15.7441V26.4375H78.25C78.4062 26.4375 78.5234 26.4424 78.6016 26.4521C78.6797 26.4619 78.7578 26.5059 78.8359 26.584C78.9141 26.6621 78.9531 26.7793 78.9531 26.9355V31.8281C78.875 32.2188 78.4062 32.4141 77.5469 32.4141H64.0996ZM80.0957 32.4434V13.1953C80.1055 13.1172 80.1836 13.0488 80.3301 12.9902C80.4766 12.9219 80.5645 12.873 80.5938 12.8438H88.4746V31.916C88.4258 32.1211 88.377 32.2627 88.3281 32.3408C88.2891 32.4092 88.2207 32.4434 88.123 32.4434H80.0957ZM90.4668 22.3945C90.4668 19.123 91.6094 16.4277 93.8945 14.3086L94.7441 13.6348C95.0566 13.3809 95.3887 13.1953 95.7402 13.0781L96.8535 12.7266C97.1562 12.6191 97.6787 12.5068 98.4209 12.3896C99.1631 12.2627 99.8125 12.1992 100.369 12.1992H100.955C102.459 12.1992 103.821 12.4482 105.042 12.9463C106.272 13.4443 107.293 14.1279 108.104 14.9971C108.914 15.8662 109.534 16.8965 109.964 18.0879C110.403 19.2695 110.623 20.5488 110.623 21.9258V22.2773C110.525 24.1523 110.027 25.6758 109.129 26.8477H110.74L111.326 27.3457V32.0039C111.238 32.2969 111.072 32.4727 110.828 32.5312C110.711 32.5312 110.262 32.502 109.48 32.4434C108.699 32.3848 108.055 32.3555 107.547 32.3555C106.658 32.3555 105.398 32.4434 103.768 32.6191C102.146 32.7949 100.896 32.8828 100.018 32.8828C98.5918 32.8828 97.2197 32.5801 95.9014 31.9746L93.6748 30.8613L93.25 30.1875V29.8945V29.9238L92.8105 29.4258C92.6836 29.2012 92.5469 29.0156 92.4004 28.8691V28.4883C91.7461 27.3945 91.2578 26.3643 90.9355 25.3975C90.623 24.4307 90.4668 23.4297 90.4668 22.3945ZM98.2012 22.4238C98.2012 22.7754 98.2012 23.0342 98.2012 23.2002C98.2109 23.3662 98.2207 23.6396 98.2305 24.0205C98.2402 24.4014 98.2646 24.7041 98.3037 24.9287C98.3428 25.1436 98.3916 25.417 98.4502 25.749C98.5186 26.0811 98.6064 26.3496 98.7139 26.5547C98.8311 26.75 98.9629 26.9502 99.1094 27.1553C99.2656 27.3506 99.4512 27.4971 99.666 27.5947C99.8809 27.6826 100.125 27.7266 100.398 27.7266C101.98 27.7266 102.771 26.3008 102.771 23.4492V21.5742C102.771 18.7031 101.961 17.2676 100.34 17.2676C98.9141 17.2676 98.2012 18.9863 98.2012 22.4238ZM112.469 16.2715C112.43 16.0762 112.41 15.5195 112.41 14.6016C112.41 13.5469 112.508 12.9219 112.703 12.7266H120.672V25.0312C120.672 26.3008 121.043 26.9355 121.785 26.9355C122.098 26.9355 122.356 26.7988 122.562 26.5254C122.767 26.2422 122.869 25.9102 122.869 25.5293V23.3613C122.928 19.084 122.957 16.9258 122.957 16.8867C122.957 15.1875 122.938 13.957 122.898 13.1953C122.898 12.9219 123.035 12.7266 123.309 12.6094H131.453V14.8945C131.326 18.5957 131.248 20.9785 131.219 22.043V22.9512C131.219 23.0684 131.214 23.2246 131.204 23.4199C131.194 23.6152 131.189 23.752 131.189 23.8301C131.189 24.1621 131.199 24.3965 131.219 24.5332V25.6758C131.219 27.0332 131.082 28.0098 130.809 28.6055V28.6641C130.496 29.3965 130.047 30.0312 129.461 30.5684C128.875 31.0957 128.206 31.5107 127.454 31.8135C126.702 32.1064 125.931 32.3213 125.14 32.458C124.349 32.585 123.514 32.6484 122.635 32.6484C122.361 32.6484 122.156 32.6191 122.02 32.5605H121.668C121.668 32.6582 121.521 32.707 121.229 32.707V32.7363C121.014 32.7461 120.389 32.6973 119.354 32.5898H118.68C118.064 32.5215 117.469 32.3848 116.893 32.1797C116.326 31.9746 115.774 31.6865 115.237 31.3154C114.7 30.9346 114.227 30.4854 113.816 29.9678C113.416 29.4502 113.089 28.8203 112.835 28.0781C112.581 27.3359 112.439 26.5254 112.41 25.6465C112.42 25.1387 112.42 24.4355 112.41 23.5371C112.41 22.6387 112.415 21.8232 112.425 21.0908C112.435 20.3486 112.459 19.6309 112.498 18.9375V18.5273C112.498 18.4785 112.503 18.4004 112.513 18.293C112.522 18.1855 112.527 18.1074 112.527 18.0586C112.527 17.9121 112.518 17.6924 112.498 17.3994C112.479 17.1064 112.469 16.8867 112.469 16.7402V16.2422V16.2715ZM133.533 32.4434V13.1953C133.543 13.1172 133.621 13.0488 133.768 12.9902C133.914 12.9219 134.002 12.873 134.031 12.8438H141.912V31.916C141.863 32.1211 141.814 32.2627 141.766 32.3408C141.727 32.4092 141.658 32.4434 141.561 32.4434H133.533ZM143.494 31.7695V30.8613C143.494 30.7832 143.499 30.6416 143.509 30.4365C143.519 30.2314 143.523 30.0703 143.523 29.9531V29.1914C143.523 27.9219 143.572 27.2383 143.67 27.1406C144.998 25.6074 146.99 23.1855 149.646 19.875L150.892 18.4248C150.628 18.4053 149.915 18.4053 148.753 18.4248C147.591 18.4346 146.854 18.4395 146.541 18.4395H146.16C146.053 18.4395 145.892 18.4443 145.677 18.4541C145.462 18.4639 145.301 18.4688 145.193 18.4688H144.256C144.021 18.3516 143.904 18.1855 143.904 17.9707V12.9023H160.135C160.311 12.9023 160.428 12.9072 160.486 12.917C160.545 12.917 160.613 12.9463 160.691 13.0049C160.77 13.0537 160.818 13.1367 160.838 13.2539C160.857 13.3711 160.867 13.5371 160.867 13.752C160.867 13.8691 160.857 14.0107 160.838 14.1768C160.818 14.3428 160.809 14.4453 160.809 14.4844L160.867 14.6602C160.867 15.0215 160.862 15.373 160.853 15.7148C160.853 16.0566 160.848 16.3447 160.838 16.5791C160.828 16.8135 160.818 17.0186 160.809 17.1943C160.799 17.3701 160.789 17.5068 160.779 17.6045C160.779 17.7021 160.779 17.7559 160.779 17.7656C160.701 17.9707 160.662 18.0879 160.662 18.1172V18.3516C159.939 19.1816 158.895 20.3584 157.527 21.8818C156.17 23.4053 155.223 24.4746 154.686 25.0898L154.041 25.9102L153.338 26.6719H160.662C160.975 26.6719 161.131 27.0625 161.131 27.8438V31.6523C161.131 31.9453 161.067 32.1455 160.94 32.2529C160.813 32.3604 160.604 32.4141 160.311 32.4141H143.934C143.875 32.3555 143.787 32.2529 143.67 32.1064C143.562 31.9502 143.504 31.8379 143.494 31.7695Z" fill="white"/>
<rect x="3" y="3" width="183" height="39" rx="19.5" stroke="white" stroke-width="5"/>
</svg>
